<?xml version='1.0' encoding='iso-8859-1'?>
<svg version="1.1" xmlns="http://www.w3.org/2000/svg" viewBox="0 0 44 44" xmlns:xlink="http://www.w3.org/1999/xlink" enable-background="new 0 0 44 44">
  <path fill-rule="evenodd" d="M22.993,43c-8.922,0-16.525-5.57-19.57-13.414l1.882-0.669  C8.076,35.985,14.942,41,22.993,41c10.497,0,19.006-8.508,19.006-19c0-10.494-8.509-19-19.006-19C14.79,3,7.819,8.204,5.159,15.483  l7.799-2.089l0.519,1.933L2.847,18.173L0,7.547L1.931,7.03l1.793,6.687C6.94,6.245,14.34,1,22.993,1C34.596,1,44,10.401,44,22  C44,33.596,34.596,43,22.993,43z"/>
</svg>
